<svg width="440" height="563" viewBox="0 0 440 563" fill="none" xmlns="http://www.w3.org/2000/svg">
<g opacity="0.6" clip-path="url(#clip0_765_137)">
<path d="M295.769 359.46C308.346 359.46 318.542 349.234 318.542 336.62C318.542 324.006 308.346 313.78 295.769 313.78C283.192 313.78 272.996 324.006 272.996 336.62C272.996 349.234 283.192 359.46 295.769 359.46Z" fill="#17191D"/>
<path d="M339.643 293.377C357.99 274.976 357.99 245.142 339.643 226.74C321.297 208.339 291.551 208.339 273.204 226.74C254.857 245.142 254.857 274.976 273.204 293.377C291.551 311.778 321.297 311.778 339.643 293.377Z" fill="#17191D"/>
<path d="M319.976 293.577C345.923 293.577 366.957 272.481 366.957 246.458C366.957 220.434 345.923 199.338 319.976 199.338C294.03 199.338 272.996 220.434 272.996 246.458C272.996 272.481 294.03 293.577 319.976 293.577Z" fill="#FF0B53"/>
<path d="M303.659 563C329.606 563 350.64 541.904 350.64 515.88C350.64 489.857 329.606 468.76 303.659 468.76C277.713 468.76 256.679 489.857 256.679 515.88C256.679 541.904 277.713 563 303.659 563Z" fill="#FF0B53"/>
<path d="M219.626 94.2394C245.573 94.2394 266.607 73.1432 266.607 47.1197C266.607 21.0962 245.573 0 219.626 0C193.68 0 172.646 21.0962 172.646 47.1197C172.646 73.1432 193.68 94.2394 219.626 94.2394Z" fill="#FF0B53"/>
<path d="M411.006 137.135C436.912 111.151 436.912 69.0236 411.006 43.0401C385.099 17.0566 343.096 17.0566 317.189 43.0401C291.283 69.0236 291.283 111.151 317.189 137.135C343.096 163.118 385.099 163.118 411.006 137.135Z" stroke="#FF0B53" stroke-width="20" stroke-miterlimit="10"/>
<path d="M250.445 415.52C260.913 391.079 249.644 362.754 225.276 352.255C200.907 341.755 172.666 353.057 162.198 377.498C151.729 401.939 162.998 430.264 187.366 440.764C211.735 451.263 239.976 439.961 250.445 415.52Z" stroke="#FF0B53" stroke-width="20" stroke-miterlimit="10"/>
<path d="M375.211 348.333V446.016L295.769 397.17L375.211 348.333Z" fill="#17191D"/>
<path d="M353.701 348.333V446.016L274.259 397.17L353.701 348.333Z" stroke="#17191D" stroke-miterlimit="10"/>
<path d="M194.07 63.3411C194.07 68.8281 187.069 68.8281 187.069 74.3152C187.069 79.8023 194.07 79.8023 194.07 85.2893C194.07 90.7764 187.069 90.7764 187.069 96.2635C187.069 101.751 194.07 101.751 194.07 107.238C194.07 112.725 187.069 112.725 187.069 118.212C187.069 123.699 194.07 123.699 194.07 129.186C194.07 134.673 187.069 134.673 187.069 140.17C187.069 145.657 194.07 145.657 194.07 151.153" stroke="#17191D" stroke-miterlimit="10"/>
<path d="M356.216 244.088V240.481L401.886 261.844V265.451L356.216 244.088Z" fill="#17191D"/>
<path d="M356.216 255.801V252.194L401.886 273.557V277.164L356.216 255.801Z" fill="#17191D"/>
<path d="M356.216 267.523V263.916L401.886 285.27V288.877L356.216 267.523Z" fill="#17191D"/>
<path d="M356.216 279.236V275.629L401.886 296.992V300.599L356.216 279.236Z" fill="#17191D"/>
<path d="M356.216 290.949V287.342L401.886 308.705V312.312L356.216 290.949Z" fill="#17191D"/>
<path d="M356.216 302.671V299.064L401.886 320.418V324.025L356.216 302.671Z" fill="#17191D"/>
<path d="M356.216 314.384V310.777L401.886 332.14V335.747L356.216 314.384Z" fill="#17191D"/>
<path d="M356.216 326.097V322.49L401.886 343.853V347.46L356.216 326.097Z" fill="#17191D"/>
<path d="M152.102 136.342C125.159 163.365 125.159 207.185 152.102 234.208C179.045 261.23 222.735 261.23 249.678 234.208L152.102 136.342Z" fill="#FF0B53"/>
<path d="M291.696 222.141C330.341 221.001 360.748 188.656 359.611 149.896C358.475 111.135 326.225 80.6383 287.579 81.7783C248.934 82.9183 218.527 115.264 219.664 154.024C220.8 192.784 253.05 223.281 291.696 222.141Z" stroke="#17191D" stroke-width="2" stroke-linecap="round" stroke-linejoin="round"/>
<path d="M291.587 211.033C324.123 209.946 349.619 182.612 348.535 149.98C347.451 117.348 320.197 91.7766 287.662 92.8639C255.126 93.9512 229.63 121.286 230.714 153.917C231.798 186.549 259.052 212.121 291.587 211.033Z" stroke="#17191D" stroke-width="2" stroke-linecap="round" stroke-linejoin="round"/>
<path d="M297.305 199.37C323.412 195.12 341.141 170.448 336.904 144.264C332.667 118.079 308.068 100.297 281.961 104.547C255.854 108.796 238.124 133.468 242.362 159.653C246.599 185.837 271.197 203.619 297.305 199.37Z" stroke="#17191D" stroke-width="2" stroke-linecap="round" stroke-linejoin="round"/>
<path d="M297.42 188.057C317.3 183.738 329.925 164.072 325.619 144.133C321.312 124.194 301.705 111.531 281.825 115.851C261.945 120.17 249.319 139.835 253.626 159.774C257.932 179.714 277.539 192.376 297.42 188.057Z" stroke="#17191D" stroke-width="2" stroke-linecap="round" stroke-linejoin="round"/>
<path d="M299.497 175.844C312.65 170.38 318.895 155.257 313.447 142.065C307.999 128.874 292.921 122.61 279.768 128.074C266.616 133.538 260.37 148.662 265.818 161.853C271.266 175.044 286.345 181.309 299.497 175.844Z" stroke="#17191D" stroke-width="2" stroke-linecap="round" stroke-linejoin="round"/>
<path d="M172.388 238.994C172.388 238.342 171.862 237.814 171.211 237.814C170.561 237.814 170.035 238.342 170.035 238.994C170.035 239.647 170.561 240.174 171.211 240.174C171.862 240.174 172.388 239.647 172.388 238.994Z" fill="#EAEAEA"/>
<path d="M191.746 238.994C191.746 238.342 191.22 237.814 190.57 237.814C189.919 237.814 189.393 238.342 189.393 238.994C189.393 239.647 189.919 240.174 190.57 240.174C191.22 240.174 191.746 239.647 191.746 238.994Z" fill="#EAEAEA"/>
<path d="M211.114 238.994C211.114 238.342 210.588 237.814 209.938 237.814C209.288 237.814 208.761 238.342 208.761 238.994C208.761 239.647 209.288 240.174 209.938 240.174C210.588 240.174 211.114 239.647 211.114 238.994Z" fill="#EAEAEA"/>
<path d="M230.472 238.994C230.472 238.342 229.946 237.814 229.296 237.814C228.645 237.814 228.119 238.342 228.119 238.994C228.119 239.647 228.645 240.174 229.296 240.174C229.946 240.174 230.472 239.647 230.472 238.994Z" fill="#EAEAEA"/>
<path d="M249.84 238.994C249.84 238.342 249.314 237.814 248.664 237.814C248.014 237.814 247.488 238.342 247.488 238.994C247.488 239.647 248.014 240.174 248.664 240.174C249.314 240.174 249.84 239.647 249.84 238.994Z" fill="#17191D"/>
<path d="M172.388 256.914C172.388 256.261 171.862 255.734 171.211 255.734C170.561 255.734 170.035 256.261 170.035 256.914C170.035 257.566 170.561 258.094 171.211 258.094C171.862 258.094 172.388 257.566 172.388 256.914Z" fill="#17191D"/>
<path d="M191.746 256.914C191.746 256.261 191.22 255.734 190.57 255.734C189.919 255.734 189.393 256.261 189.393 256.914C189.393 257.566 189.919 258.094 190.57 258.094C191.22 258.094 191.746 257.566 191.746 256.914Z" fill="#17191D"/>
<path d="M211.114 256.914C211.114 256.261 210.588 255.734 209.938 255.734C209.288 255.734 208.761 256.261 208.761 256.914C208.761 257.566 209.288 258.094 209.938 258.094C210.588 258.094 211.114 257.566 211.114 256.914Z" fill="#17191D"/>
<path d="M230.472 256.914C230.472 256.261 229.946 255.734 229.296 255.734C228.645 255.734 228.119 256.261 228.119 256.914C228.119 257.566 228.645 258.094 229.296 258.094C229.946 258.094 230.472 257.566 230.472 256.914Z" fill="#17191D"/>
<path d="M249.84 256.914C249.84 256.261 249.314 255.734 248.664 255.734C248.014 255.734 247.488 256.261 247.488 256.914C247.488 257.566 248.014 258.094 248.664 258.094C249.314 258.094 249.84 257.566 249.84 256.914Z" fill="#17191D"/>
<path d="M172.388 274.833C172.388 274.181 171.862 273.653 171.211 273.653C170.561 273.653 170.035 274.181 170.035 274.833C170.035 275.485 170.561 276.013 171.211 276.013C171.862 276.013 172.388 275.485 172.388 274.833Z" fill="#17191D"/>
<path d="M191.746 274.833C191.746 274.181 191.22 273.653 190.57 273.653C189.919 273.653 189.393 274.181 189.393 274.833C189.393 275.485 189.919 276.013 190.57 276.013C191.22 276.013 191.746 275.485 191.746 274.833Z" fill="#17191D"/>
<path d="M211.114 274.833C211.114 274.181 210.588 273.653 209.938 273.653C209.288 273.653 208.761 274.181 208.761 274.833C208.761 275.485 209.288 276.013 209.938 276.013C210.588 276.013 211.114 275.485 211.114 274.833Z" fill="#17191D"/>
<path d="M230.472 274.833C230.472 274.181 229.946 273.653 229.296 273.653C228.645 273.653 228.119 274.181 228.119 274.833C228.119 275.485 228.645 276.013 229.296 276.013C229.946 276.013 230.472 275.485 230.472 274.833Z" fill="#17191D"/>
<path d="M249.84 274.833C249.84 274.181 249.314 273.653 248.664 273.653C248.014 273.653 247.488 274.181 247.488 274.833C247.488 275.485 248.014 276.013 248.664 276.013C249.314 276.013 249.84 275.485 249.84 274.833Z" fill="#17191D"/>
<path d="M172.388 292.743C172.388 292.09 171.862 291.563 171.211 291.563C170.561 291.563 170.035 292.09 170.035 292.743C170.035 293.395 170.561 293.923 171.211 293.923C171.862 293.923 172.388 293.395 172.388 292.743Z" fill="#17191D"/>
<path d="M191.746 292.743C191.746 292.09 191.22 291.563 190.57 291.563C189.919 291.563 189.393 292.09 189.393 292.743C189.393 293.395 189.919 293.923 190.57 293.923C191.22 293.923 191.746 293.395 191.746 292.743Z" fill="#17191D"/>
<path d="M211.114 292.743C211.114 292.09 210.588 291.563 209.938 291.563C209.288 291.563 208.761 292.09 208.761 292.743C208.761 293.395 209.288 293.923 209.938 293.923C210.588 293.923 211.114 293.395 211.114 292.743Z" fill="#17191D"/>
<path d="M230.472 292.743C230.472 292.09 229.946 291.563 229.296 291.563C228.645 291.563 228.119 292.09 228.119 292.743C228.119 293.395 228.645 293.923 229.296 293.923C229.946 293.923 230.472 293.395 230.472 292.743Z" fill="#17191D"/>
<path d="M249.84 292.743C249.84 292.09 249.314 291.563 248.664 291.563C248.014 291.563 247.488 292.09 247.488 292.743C247.488 293.395 248.014 293.923 248.664 293.923C249.314 293.923 249.84 293.395 249.84 292.743Z" fill="#17191D"/>
<path d="M172.388 310.662C172.388 310.01 171.862 309.482 171.211 309.482C170.561 309.482 170.035 310.01 170.035 310.662C170.035 311.314 170.561 311.842 171.211 311.842C171.862 311.842 172.388 311.314 172.388 310.662Z" fill="#17191D"/>
<path d="M191.746 310.662C191.746 310.01 191.22 309.482 190.57 309.482C189.919 309.482 189.393 310.01 189.393 310.662C189.393 311.314 189.919 311.842 190.57 311.842C191.22 311.842 191.746 311.314 191.746 310.662Z" fill="#17191D"/>
<path d="M211.114 310.662C211.114 310.01 210.588 309.482 209.938 309.482C209.288 309.482 208.761 310.01 208.761 310.662C208.761 311.314 209.288 311.842 209.938 311.842C210.588 311.842 211.114 311.314 211.114 310.662Z" fill="#17191D"/>
<path d="M230.472 310.662C230.472 310.01 229.946 309.482 229.296 309.482C228.645 309.482 228.119 310.01 228.119 310.662C228.119 311.314 228.645 311.842 229.296 311.842C229.946 311.842 230.472 311.314 230.472 310.662Z" fill="#17191D"/>
<path d="M249.84 310.662C249.84 310.01 249.314 309.482 248.664 309.482C248.014 309.482 247.488 310.01 247.488 310.662C247.488 311.314 248.014 311.842 248.664 311.842C249.314 311.842 249.84 311.314 249.84 310.662Z" fill="#17191D"/>
<path d="M303.66 430.38C303.66 429.727 303.134 429.2 302.483 429.2C301.833 429.2 301.307 429.727 301.307 430.38C301.307 431.032 301.833 431.56 302.483 431.56C303.134 431.56 303.66 431.032 303.66 430.38Z" fill="#17191D"/>
<path d="M323.028 430.38C323.028 429.727 322.502 429.2 321.851 429.2C321.201 429.2 320.675 429.727 320.675 430.38C320.675 431.032 321.201 431.56 321.851 431.56C322.502 431.56 323.028 431.032 323.028 430.38Z" fill="#17191D"/>
<path d="M342.396 430.38C342.396 429.727 341.87 429.2 341.219 429.2C340.569 429.2 340.043 429.727 340.043 430.38C340.043 431.032 340.569 431.56 341.219 431.56C341.86 431.56 342.396 431.032 342.396 430.38Z" fill="#17191D"/>
<path d="M361.754 430.38C361.754 429.727 361.228 429.2 360.578 429.2C359.927 429.2 359.401 429.727 359.401 430.38C359.401 431.032 359.927 431.56 360.578 431.56C361.228 431.56 361.754 431.032 361.754 430.38Z" fill="#EAEAEA"/>
<path d="M381.122 430.38C381.122 429.727 380.596 429.2 379.945 429.2C379.295 429.2 378.769 429.727 378.769 430.38C378.769 431.032 379.295 431.56 379.945 431.56C380.596 431.56 381.122 431.032 381.122 430.38Z" fill="#17191D"/>
<path d="M303.66 448.289C303.66 447.637 303.134 447.11 302.483 447.11C301.833 447.11 301.307 447.637 301.307 448.289C301.307 448.942 301.833 449.469 302.483 449.469C303.134 449.469 303.66 448.942 303.66 448.289Z" fill="#17191D"/>
<path d="M323.028 448.289C323.028 447.637 322.502 447.11 321.851 447.11C321.201 447.11 320.675 447.637 320.675 448.289C320.675 448.942 321.201 449.469 321.851 449.469C322.502 449.469 323.028 448.942 323.028 448.289Z" fill="#17191D"/>
<path d="M342.396 448.289C342.396 447.637 341.87 447.11 341.219 447.11C340.569 447.11 340.043 447.637 340.043 448.289C340.043 448.942 340.569 449.469 341.219 449.469C341.86 449.469 342.396 448.942 342.396 448.289Z" fill="#17191D"/>
<path d="M361.754 448.289C361.754 447.637 361.228 447.11 360.578 447.11C359.927 447.11 359.401 447.637 359.401 448.289C359.401 448.942 359.927 449.469 360.578 449.469C361.228 449.469 361.754 448.942 361.754 448.289Z" fill="#17191D"/>
<path d="M381.122 448.289C381.122 447.637 380.596 447.11 379.945 447.11C379.295 447.11 378.769 447.637 378.769 448.289C378.769 448.942 379.295 449.469 379.945 449.469C380.596 449.469 381.122 448.942 381.122 448.289Z" fill="#17191D"/>
<path d="M303.66 466.209C303.66 465.557 303.134 465.029 302.483 465.029C301.833 465.029 301.307 465.557 301.307 466.209C301.307 466.861 301.833 467.389 302.483 467.389C303.134 467.389 303.66 466.861 303.66 466.209Z" fill="#17191D"/>
<path d="M323.028 466.209C323.028 465.557 322.502 465.029 321.851 465.029C321.201 465.029 320.675 465.557 320.675 466.209C320.675 466.861 321.201 467.389 321.851 467.389C322.502 467.389 323.028 466.861 323.028 466.209Z" fill="#17191D"/>
<path d="M342.396 466.209C342.396 465.557 341.87 465.029 341.219 465.029C340.569 465.029 340.043 465.557 340.043 466.209C340.043 466.861 340.569 467.389 341.219 467.389C341.86 467.389 342.396 466.861 342.396 466.209Z" fill="#17191D"/>
<path d="M361.754 466.209C361.754 465.557 361.228 465.029 360.578 465.029C359.927 465.029 359.401 465.557 359.401 466.209C359.401 466.861 359.927 467.389 360.578 467.389C361.228 467.389 361.754 466.861 361.754 466.209Z" fill="#17191D"/>
<path d="M381.122 466.209C381.122 465.557 380.596 465.029 379.945 465.029C379.295 465.029 378.769 465.557 378.769 466.209C378.769 466.861 379.295 467.389 379.945 467.389C380.596 467.389 381.122 466.861 381.122 466.209Z" fill="#17191D"/>
<path d="M303.66 484.119C303.66 483.466 303.134 482.939 302.483 482.939C301.833 482.939 301.307 483.466 301.307 484.119C301.307 484.771 301.833 485.298 302.483 485.298C303.134 485.308 303.66 484.771 303.66 484.119Z" fill="#EAEAEA"/>
<path d="M323.028 484.119C323.028 483.466 322.502 482.939 321.851 482.939C321.201 482.939 320.675 483.466 320.675 484.119C320.675 484.771 321.201 485.298 321.851 485.298C322.502 485.298 323.028 484.771 323.028 484.119Z" fill="#EAEAEA"/>
<path d="M342.396 484.119C342.396 483.466 341.87 482.939 341.219 482.939C340.569 482.939 340.043 483.466 340.043 484.119C340.043 484.771 340.569 485.298 341.219 485.298C341.86 485.308 342.396 484.771 342.396 484.119Z" fill="#17191D"/>
<path d="M361.754 484.119C361.754 483.466 361.228 482.939 360.578 482.939C359.927 482.939 359.401 483.466 359.401 484.119C359.401 484.771 359.927 485.298 360.578 485.298C361.228 485.308 361.754 484.771 361.754 484.119Z" fill="#17191D"/>
<path d="M381.122 484.119C381.122 483.466 380.596 482.939 379.945 482.939C379.295 482.939 378.769 483.466 378.769 484.119C378.769 484.771 379.295 485.298 379.945 485.298C380.596 485.308 381.122 484.771 381.122 484.119Z" fill="#17191D"/>
<path d="M303.66 502.038C303.66 501.385 303.134 500.858 302.483 500.858C301.833 500.858 301.307 501.385 301.307 502.038C301.307 502.69 301.833 503.218 302.483 503.218C303.134 503.218 303.66 502.69 303.66 502.038Z" fill="#EAEAEA"/>
<path d="M323.028 502.038C323.028 501.385 322.502 500.858 321.851 500.858C321.201 500.858 320.675 501.385 320.675 502.038C320.675 502.69 321.201 503.218 321.851 503.218C322.502 503.218 323.028 502.69 323.028 502.038Z" fill="#EAEAEA"/>
<path d="M342.396 502.038C342.396 501.385 341.87 500.858 341.219 500.858C340.569 500.858 340.043 501.385 340.043 502.038C340.043 502.69 340.569 503.218 341.219 503.218C341.86 503.218 342.396 502.69 342.396 502.038Z" fill="#EAEAEA"/>
<path d="M361.754 502.038C361.754 501.385 361.228 500.858 360.578 500.858C359.927 500.858 359.401 501.385 359.401 502.038C359.401 502.69 359.927 503.218 360.578 503.218C361.228 503.218 361.754 502.69 361.754 502.038Z" fill="#17191D"/>
<path d="M381.122 502.038C381.122 501.385 380.596 500.858 379.945 500.858C379.295 500.858 378.769 501.385 378.769 502.038C378.769 502.69 379.295 503.218 379.945 503.218C380.596 503.218 381.122 502.69 381.122 502.038Z" fill="#17191D"/>
<path d="M179.112 479.428C184.583 479.428 184.583 486.45 190.054 486.45C195.524 486.45 195.524 479.428 200.995 479.428C206.466 479.428 206.466 486.45 211.937 486.45C217.408 486.45 217.408 479.428 222.879 479.428C228.349 479.428 228.349 486.45 233.82 486.45C239.291 486.45 239.291 479.428 244.762 479.428C250.233 479.428 250.233 486.45 255.713 486.45C261.184 486.45 261.184 479.428 266.665 479.428" stroke="#17191D" stroke-miterlimit="10"/>
<path d="M88.1081 252.538C88.1081 234.151 73.2246 219.245 54.8648 219.245C36.5051 219.245 21.6216 234.151 21.6216 252.538C21.6216 270.925 36.5051 285.831 54.8648 285.831C73.2246 285.831 88.1081 270.925 88.1081 252.538Z" fill="#FF0B53"/>
<path d="M131.462 313.981L115.674 329.789L99.8895 313.981L88.1082 325.78L103.893 341.591L88.1082 357.399L99.8895 369.198L115.674 353.39L131.462 369.198L143.243 357.399L127.458 341.591L143.243 325.78L131.462 313.981Z" fill="#FF0B53"/>
</g>
<defs>
<clipPath id="clip0_765_137">
<rect width="440" height="563" fill="white"/>
</clipPath>
</defs>
</svg>
