<svg width="399" height="478" viewBox="0 0 399 478" fill="none" xmlns="http://www.w3.org/2000/svg">
<path d="M90.2816 1.95929C148.948 -5.49849 174.164 37.7066 159.629 67.217C145.093 96.7273 80.533 102.964 89.5573 150.761C98.5858 198.561 20.0977 220.172 20.0977 220.172" stroke="white" stroke-miterlimit="10"/>
<path d="M1 14.4333C1 14.4333 45.7219 30.6446 90.219 24.8242C134.716 19.0038 139.919 45.1644 134.716 55.5803C123.919 77.1954 66.1972 81.3492 62.4593 116.263C59.6496 142.507 81.9773 177.78 31.3155 196.482" stroke="white" stroke-miterlimit="10"/>
<path d="M20.9342 31.8904C20.9342 31.8904 66.6468 26.0533 58.4841 51.8431C49.131 81.4034 27.1613 80.9368 47.9239 118.346C55.3081 131.654 57.4768 185.267 16.78 174.459" stroke="white" stroke-miterlimit="10"/>
<path d="M98.3774 61.8174C109.729 61.8174 118.932 56.7921 118.932 50.5932C118.932 44.3943 109.729 39.369 98.3774 39.369C87.0255 39.369 77.823 44.3943 77.823 50.5932C77.823 56.7921 87.0255 61.8174 98.3774 61.8174Z" stroke="white" stroke-miterlimit="10"/>
<path d="M359.775 257.019C359.775 257.019 277.299 237.62 252.383 319.089C234.505 377.547 232.981 409.424 195.893 425.494C158.81 441.563 137.214 445.005 135 462.404" stroke="white" stroke-miterlimit="10"/>
<path d="M232.427 462.404C232.427 462.404 210.658 408.312 268.108 380.051C306.89 360.974 288.709 296.203 313.842 275.584C333.776 259.235 359.775 294.537 359.775 294.537" stroke="white" stroke-miterlimit="10"/>
<path d="M249.464 477.019C249.464 477.019 250.126 435.176 294.419 407.745C338.713 380.314 321.376 332.93 346.85 325.726C372.321 318.523 397.791 349.558 397.791 349.558" stroke="white" stroke-miterlimit="10"/>
<path d="M280.621 462.07C280.621 462.07 277.299 427.71 311.074 423.277C344.848 418.844 373.64 456.404 373.64 456.404" stroke="white" stroke-miterlimit="10"/>
<path d="M118.133 261L105.029 274.112L91.9301 261L82.1523 270.787L95.2517 283.898L82.1523 297.01L91.9301 306.801L105.029 293.685L118.133 306.801L127.911 297.014L114.807 283.898L127.911 270.787L118.133 261Z" stroke="#FF0B53" stroke-width="4" stroke-miterlimit="10"/>
<path d="M357.548 85.7531L334.042 109.276L310.541 85.7531L293 103.31L316.502 126.838L293 150.361L310.541 167.918L334.042 144.395L357.548 167.918L375.089 150.361L351.587 126.838L375.089 103.31L357.548 85.7531Z" fill="#FF0B53"/>
</svg>
