<svg width="1864" height="947" viewBox="0 0 1864 947" fill="none" xmlns="http://www.w3.org/2000/svg">
<path d="M290.441 3.75748C480.71 -20.4075 562.493 119.587 515.351 215.208C468.209 310.828 258.824 331.038 288.092 485.91C317.373 640.796 62.8174 710.82 62.8174 710.82" stroke="white" stroke-miterlimit="10"/>
<path d="M1 44C1 44 146.044 96.5285 290.359 77.669C434.674 58.8095 451.549 143.576 434.674 177.326C399.655 247.364 212.45 260.824 200.327 373.954C191.215 458.99 263.629 573.281 99.3205 633.883" stroke="white" stroke-miterlimit="10"/>
<path d="M76.473 93.3956C76.473 93.3956 224.73 74.4821 198.257 158.047C167.922 253.83 96.669 252.318 164.007 373.534C187.956 416.653 194.989 590.371 63 555.352" stroke="white" stroke-miterlimit="10"/>
<path d="M316.698 197.712C353.515 197.712 383.361 181.429 383.361 161.343C383.361 141.257 353.515 124.974 316.698 124.974C279.881 124.974 250.035 141.257 250.035 161.343C250.035 181.429 279.881 197.712 316.698 197.712Z" stroke="white" stroke-miterlimit="10"/>
<path d="M273.742 674.681L231.244 717.165L188.759 674.681L157.048 706.392L199.532 748.877L157.048 791.361L188.759 823.086L231.244 780.588L273.742 823.086L305.453 791.375L262.955 748.877L305.453 706.392L273.742 674.681Z" stroke="#FF0B53" stroke-width="4" stroke-miterlimit="10"/>
<path d="M1730.08 282.409C1730.08 282.409 1462.59 219.553 1381.78 483.532C1323.8 672.951 1318.86 776.239 1198.57 828.309C1078.3 880.378 1008.26 891.529 1001.08 947.905" stroke="white" stroke-miterlimit="10"/>
<path d="M1317.06 947.906C1317.06 947.906 1246.46 772.635 1432.78 681.065C1558.56 619.248 1499.6 409.377 1581.11 342.566C1645.76 289.591 1730.08 403.977 1730.08 403.977" stroke="white" stroke-miterlimit="10"/>
<path d="M1372.32 995.263C1372.32 995.263 1374.46 859.683 1518.12 770.799C1661.77 681.915 1605.54 528.379 1688.16 505.038C1770.77 481.696 1853.38 582.258 1853.38 582.258" stroke="white" stroke-miterlimit="10"/>
<path d="M1473.37 946.825C1473.37 946.825 1462.59 835.491 1572.13 821.127C1681.67 806.763 1775.05 928.465 1775.05 928.465" stroke="white" stroke-miterlimit="10"/>
<path d="M1806.32 278.71L1730.08 354.931L1653.86 278.71L1596.97 335.599L1673.19 411.834L1596.97 488.055L1653.86 544.944L1730.08 468.723L1806.32 544.944L1863.2 488.055L1786.98 411.834L1863.2 335.599L1806.32 278.71Z" fill="#FF0B53"/>
</svg>
